<?xml version="1.0" encoding="utf-8"?>
<svg width="128px" height="128px" xmlns="http://www.w3.org/2000/svg" version="1.2" baseProfile="tiny" xmlns:bx="https://boxy-svg.com">
  <desc>Created by EvoPdf</desc>
  <defs>
    <bx:export>
      <bx:file format="svg" units="mm"/>
    </bx:export>
  </defs>
  <g fill="none" stroke="black" stroke-width="1" fill-rule="evenodd" stroke-linecap="square" stroke-linejoin="bevel" transform="matrix(4.363647, 0, 0, 4.474066, -9.333329, -9.333351)" style="transform-origin: 9.33333px 9.33333px;" id="object-0">
    <g fill="#000000" fill-opacity="1" stroke="#000000" stroke-opacity="1" stroke-width="1" stroke-linecap="square" stroke-linejoin="miter" stroke-miterlimit="2" transform="matrix(1,0,0,1,0,0)"/>
    <g fill="#000000" fill-opacity="1" stroke="#000000" stroke-opacity="1" stroke-width="1" stroke-linecap="square" stroke-linejoin="miter" stroke-miterlimit="2" transform="matrix(1,0,0,1,0,0)"/>
    <g fill="#000000" fill-opacity="1" stroke="#000000" stroke-opacity="1" stroke-width="1" stroke-linecap="square" stroke-linejoin="miter" stroke-miterlimit="2" transform="matrix(1,0,0,1,0,0)"/>
    <g fill="#000000" fill-opacity="1" stroke="#000000" stroke-opacity="1" stroke-width="1" stroke-linecap="square" stroke-linejoin="miter" stroke-miterlimit="2" transform="matrix(1,0,0,1,0,0)"/>
    <g fill="#000000" fill-opacity="1" stroke="#000000" stroke-opacity="1" stroke-width="1" stroke-linecap="square" stroke-linejoin="miter" stroke-miterlimit="2" transform="matrix(1.33333,0,0,1.33333,8,8)"/>
    <g fill="#000000" fill-opacity="1" stroke="none" transform="matrix(1.33333,0,0,1.33333,8,8)">
      <path vector-effect="none" fill-rule="nonzero" d="M12,1 C5.923,1 1,5.923 1,12 C1,16.867 4.149,20.979 8.521,22.436 C9.071,22.532 9.277,22.203 9.277,21.914 C9.277,21.652 9.264,20.786 9.264,19.865 C6.5,20.374 5.785,19.191 5.565,18.573 C5.441,18.256 4.905,17.28 4.438,17.019 C4.053,16.812 3.502,16.304 4.424,16.29 C5.29,16.276 5.909,17.087 6.115,17.418 C7.105,19.081 8.686,18.614 9.319,18.325 C9.415,17.61 9.704,17.129 10.02,16.854 C7.572,16.579 5.015,15.63 5.015,11.422 C5.015,10.226 5.441,9.236 6.143,8.466 C6.032,8.191 5.647,7.064 6.253,5.551 C6.253,5.551 7.174,5.263 9.277,6.679 C10.1725,6.43055 11.0977,6.30573 12.027,6.308 C12.963,6.308 13.898,6.431 14.777,6.679 C16.881,5.249 17.802,5.551 17.802,5.551 C18.407,7.064 18.023,8.191 17.913,8.466 C18.614,9.236 19.04,10.213 19.04,11.422 C19.04,15.644 16.469,16.579 14.021,16.854 C14.42,17.198 14.764,17.858 14.764,18.889 C14.764,20.36 14.75,21.543 14.75,21.914 C14.75,22.203 14.956,22.546 15.506,22.436 C19.851,20.979 23,16.854 23,12 C23,5.923 18.078,1 12,1 "/>
    </g>
    <g fill="#000000" fill-opacity="1" stroke="#000000" stroke-opacity="1" stroke-width="1" stroke-linecap="square" stroke-linejoin="miter" stroke-miterlimit="2" transform="matrix(1.33333,0,0,1.33333,8,8)"/>
    <g fill="#000000" fill-opacity="1" stroke="#000000" stroke-opacity="1" stroke-width="1" stroke-linecap="square" stroke-linejoin="miter" stroke-miterlimit="2" transform="matrix(1.33333,0,0,1.33333,8,8)"/>
    <g fill="#000000" fill-opacity="1" stroke="#000000" stroke-opacity="1" stroke-width="1" stroke-linecap="square" stroke-linejoin="miter" stroke-miterlimit="2" transform="matrix(1,0,0,1,0,0)"/>
    <g fill="#000000" fill-opacity="1" stroke="#000000" stroke-opacity="1" stroke-width="1" stroke-linecap="square" stroke-linejoin="miter" stroke-miterlimit="2" transform="matrix(1,0,0,1,0,0)"/>
    <g fill="#000000" fill-opacity="1" stroke="#000000" stroke-opacity="1" stroke-width="1" stroke-linecap="square" stroke-linejoin="miter" stroke-miterlimit="2" transform="matrix(1,0,0,1,0,0)"/>
    <g fill="#000000" fill-opacity="1" stroke="#000000" stroke-opacity="1" stroke-width="1" stroke-linecap="square" stroke-linejoin="miter" stroke-miterlimit="2" transform="matrix(1,0,0,1,0,0)"/>
    <g fill="#000000" fill-opacity="1" stroke="#000000" stroke-opacity="1" stroke-width="1" stroke-linecap="square" stroke-linejoin="miter" stroke-miterlimit="2" transform="matrix(1.33333,0,0,1.33333,8,8)"/>
    <g fill="#000000" fill-opacity="1" stroke="#000000" stroke-opacity="1" stroke-width="1" stroke-linecap="square" stroke-linejoin="miter" stroke-miterlimit="2" transform="matrix(1,0,0,1,0,0)"/>
    <g fill="#000000" fill-opacity="1" stroke="#000000" stroke-opacity="1" stroke-width="1" stroke-linecap="square" stroke-linejoin="miter" stroke-miterlimit="2" transform="matrix(1,0,0,1,0,0)"/>
    <g fill="#000000" fill-opacity="1" stroke="#000000" stroke-opacity="1" stroke-width="1" stroke-linecap="square" stroke-linejoin="miter" stroke-miterlimit="2" transform="matrix(1,0,0,1,0,0)"/>
    <g fill="#000000" fill-opacity="1" stroke="#000000" stroke-opacity="1" stroke-width="1" stroke-linecap="square" stroke-linejoin="miter" stroke-miterlimit="2" transform="matrix(1,0,0,1,0,0)"/>
    <g fill="#000000" fill-opacity="1" stroke="#000000" stroke-opacity="1" stroke-width="1" stroke-linecap="square" stroke-linejoin="miter" stroke-miterlimit="2" transform="matrix(1,0,0,1,0,0)"/>
    <g fill="#000000" fill-opacity="1" stroke="#000000" stroke-opacity="1" stroke-width="1" stroke-linecap="square" stroke-linejoin="miter" stroke-miterlimit="2" transform="matrix(1,0,0,1,0,0)"/>
  </g>
</svg>